# xmcd CD database file
#
# Track frame offsets:
#	182
#	14202
#	26885
#	38532
#	51487
#	62045
#	73955
#	84112
#	96657
#	109550
#	123865
#	136797
#	149027
#	160180
#	171795
#	182750
#	194770
#	205330
#
# Disc length: 2878 seconds
#
# Revision: 0
# Processed by: cddbd v1.5.2PL0 Copyright (c) Steve Scherf et al.
# Submitted via: CDex 1.51
#
DISCID=110b3c12
DTITLE=Jimmy Reed - Boss Man Disc 1
DYEAR=1999
DGENRE=Blues
TTITLE0=You Don't Have To Go
TTITLE1=High And Lonesome
TTITLE2=Boogie In The Dark
TTITLE3=You Upset My Mind
TTITLE4=I Ain't Got You
TTITLE5=Come On Baby
TTITLE6=Ain't That Lovin' You Baby
TTITLE7=My First Plea
TTITLE8=You Got Me Dizzy
TTITLE9=Little Rain
TTITLE10=The Sun Is Shining
TTITLE11=Honest I Do
TTITLE12=Ends Ands Odds
TTITLE13=You're Something else
TTITLE14=Down In Virginia
TTITLE15=I'm Gonna Get My Baby
TTITLE16=Going To New York
TTITLE17=Take Out Some Insurance
EXTD=YEAR: 1999
EXTT0=
EXTT1=
EXTT2=
EXTT3=
EXTT4=
EXTT5=
EXTT6=
EXTT7=
EXTT8=
EXTT9=
EXTT10=
EXTT11=
EXTT12=
EXTT13=
EXTT14=
EXTT15=
EXTT16=
EXTT17=
PLAYORDER=
